 <svg  version="1.0" xmlns="http://www.w3.org/2000/svg"  width="300.000000pt" height="300.000000pt" viewBox="0 0 300.000000 300.000000"  preserveAspectRatio="xMidYMid meet">  <g transform="translate(0.000000,300.000000) scale(0.100000,-0.100000)" fill="#ffffff" stroke="none"> <path d="M1451 2054 c-151 -40 -288 -152 -360 -291 -25 -49 -25 -53 -8 -53 8 0 23 19 36 43 12 23 29 53 39 67 11 16 12 21 3 16 -9 -6 -12 -5 -9 4 2 7 11 14 19 15 9 2 33 19 55 39 21 20 68 54 102 75 41 25 59 41 50 45 -7 3 -3 4 9 2 12 -2 41 1 65 7 32 8 38 12 23 17 -45 16 223 1 280 -15 142 -41 269 -139 335 -257 34 -62 57 -77 45 -30 -23 94 -218 285 -271 265 -11 -4 -15 -3 -10 5 3 6 -2 16 -13 21 -30 17 -50 12 -21 -4 34 -19 26 -18 -45 5 -51 17 -54 20 -20 15 34 -5 37 -4 20 7 -30 18 -258 20 -324 2z m-142 -85 c-35 -23 -80 -55 -100 -72 -19 -18 -11 -8 18 21 30 28 71 61 91 72 63 33 58 22 -9 -21z m627 -5 c30 -20 73 -57 95 -82 41 -47 99 -138 99 -157 0 -5 -13 13 -28 41 -51 92 -112 154 -218 221 -11 6 -15 12 -11 12 5 1 33 -15 63 -35z m-812 -181 c-15 -27 -32 -52 -37 -58 -11 -12 19 49 41 83 26 40 23 23 -4 -25z"/> <path d="M1719 1645 c-51 -40 -99 -48 -99 -15 0 24 -13 26 -30 5 -7 -8 -21 -15 -31 -15 -12 0 -16 5 -13 15 7 17 -21 21 -31 5 -4 -6 -21 -8 -39 -5 -23 5 -36 2 -46 -10 -12 -14 -12 -18 1 -26 8 -5 21 -9 29 -8 9 0 6 4 -8 12 -30 17 -19 27 23 20 19 -3 35 -1 39 6 10 15 27 14 24 -1 -2 -8 9 -14 25 -16 15 -2 27 1 27 7 0 6 5 11 10 11 6 0 9 -5 8 -12 -2 -7 13 -15 34 -18 33 -6 41 -3 65 22 62 65 97 54 38 -11 -31 -33 -36 -46 -33 -78 2 -24 8 -37 16 -35 14 2 16 -14 2 -23 -16 -10 -11 -43 8 -54 14 -8 15 -12 5 -22 -7 -7 -13 -20 -12 -29 0 -13 1 -13 6 0 3 8 12 23 20 32 15 17 9 43 -8 33 -18 -12 -21 26 -4 45 18 20 14 35 -8 35 -28 0 -17 51 19 93 21 25 34 49 30 57 -8 22 -18 19 -67 -20z"/> <path d="M1480 1586 c0 -2 25 -16 55 -30 30 -14 55 -31 55 -38 0 -8 -17 -31 -38 -51 -35 -35 -42 -37 -79 -31 -54 8 -63 -9 -23 -46 18 -17 36 -30 40 -30 4 0 13 -14 20 -30 17 -42 40 -22 40 35 0 37 5 47 41 79 22 21 46 35 52 33 7 -2 23 -35 38 -73 14 -38 28 -78 32 -88 6 -15 10 -16 22 -6 8 7 14 20 14 29 -1 13 -2 13 -6 -1 -8 -32 -20 -19 -43 45 -27 75 -46 107 -64 107 -7 0 -34 -18 -59 -41 -45 -39 -46 -42 -40 -85 7 -51 -5 -57 -29 -14 -9 16 -31 38 -47 48 -38 23 -30 34 18 26 33 -5 40 -1 81 41 50 51 49 65 -6 96 -33 19 -74 33 -74 25z"/> <path d="M1922 1508 l3 -83 48 0 c56 0 68 19 15 23 l-38 3 0 70 c0 55 -3 69 -15 69 -13 0 -15 -14 -13 -82z m56 -71 l37 -4 -42 -1 -43 -2 2 73 2 72 3 -67 4 -67 37 -4z"/> <path d="M2042 1508 c4 -106 22 -105 26 2 2 67 0 80 -13 80 -13 0 -15 -13 -13 -82z m15 -40 c-2 -24 -4 -7 -4 37 0 44 2 63 4 43 2 -21 2 -57 0 -80z"/> <path d="M2100 1504 c0 -64 3 -85 13 -82 6 3 14 26 17 53 l5 48 33 -52 c49 -76 62 -69 62 34 0 69 -3 85 -15 85 -11 0 -15 -13 -15 -54 0 -45 -3 -54 -17 -52 -9 2 -19 9 -21 16 -3 8 0 10 8 5 9 -6 11 -4 5 6 -20 34 -58 79 -66 79 -5 0 -9 -39 -9 -86z m120 -1 c0 -75 0 -76 -20 -58 -23 21 -28 44 -5 25 13 -11 15 -5 15 49 0 33 2 61 5 61 3 0 5 -34 5 -77z m-98 5 c-5 -90 -10 -95 -11 -10 -1 39 3 72 7 72 5 0 7 -28 4 -62z"/> <path d="M2254 1577 c-3 -8 -4 -45 -2 -83 l3 -69 49 0 c31 0 51 5 54 13 2 8 -9 12 -37 12 -34 0 -41 3 -41 20 0 16 7 20 35 20 24 0 35 5 35 15 0 10 -11 15 -35 15 -28 0 -35 4 -35 20 0 17 7 20 41 20 58 0 46 24 -14 28 -34 2 -49 -1 -53 -11z m61 -6 c-34 -5 -40 -10 -40 -31 0 -21 6 -26 35 -31 l35 -6 -35 -4 c-30 -3 -35 -8 -35 -29 0 -21 6 -26 40 -31 l40 -6 -47 -2 -48 -1 0 68 c0 38 3 72 7 75 3 4 25 6 47 6 l41 -2 -40 -6z"/> <path d="M657 1562 c-28 -31 -21 -51 27 -73 57 -25 61 -56 7 -54 -21 0 -36 6 -39 15 -3 13 -2 13 8 0 9 -12 11 -12 8 -1 -7 24 -28 25 -28 2 0 -21 33 -41 66 -41 17 0 54 36 54 53 0 8 -4 7 -11 -3 -8 -12 -9 -9 -5 13 4 16 2 27 -4 27 -6 0 -8 -5 -4 -12 5 -8 2 -9 -10 -5 -10 4 -21 7 -24 7 -4 0 0 4 7 9 12 8 9 11 -12 16 -27 7 -38 35 -14 35 8 0 7 4 -3 10 -11 7 -6 10 20 10 22 0 30 -3 22 -9 -10 -6 -10 -10 3 -21 20 -16 33 -4 19 18 -16 25 -66 27 -87 4z"/> <path d="M770 1565 c0 -9 9 -15 25 -15 24 0 25 -2 25 -65 0 -36 3 -65 8 -65 4 0 5 30 2 67 -5 61 -7 68 -30 74 -17 5 -8 7 30 7 42 0 49 -2 30 -8 l-25 -8 28 -1 c18 -1 27 4 27 14 0 12 -13 15 -60 15 -47 0 -60 -3 -60 -15z"/> <path d="M927 1562 c-11 -12 -17 -36 -17 -65 0 -38 5 -49 27 -67 50 -39 113 -1 113 69 0 68 -82 109 -123 63z m97 -14 c25 -36 20 -83 -11 -107 -28 -23 -59 -20 -80 7 -18 22 -16 87 3 106 23 24 70 20 88 -6z"/> <path d="M1003 1543 c8 -10 17 -31 20 -48 l4 -30 2 28 c1 32 -14 67 -31 67 -6 0 -5 -7 5 -17z"/> <path d="M1077 1573 c-4 -3 -7 -39 -7 -80 0 -58 3 -73 15 -73 10 0 15 10 15 30 0 20 5 30 15 30 8 0 21 -13 30 -30 9 -16 22 -30 30 -30 19 0 19 10 -1 38 -15 21 -15 25 0 41 21 23 20 44 -2 64 -18 17 -82 23 -95 10z m93 -24 c9 -16 8 -26 -5 -45 -12 -19 -13 -29 -4 -45 6 -11 9 -22 7 -24 -2 -3 -12 11 -23 30 -10 19 -24 35 -32 35 -7 0 -13 11 -13 25 0 20 5 25 26 25 23 0 26 -3 22 -25 -6 -28 6 -34 16 -9 9 24 -12 44 -45 44 -28 0 -28 -1 -27 -60 0 -33 -2 -63 -6 -67 -3 -3 -6 26 -6 65 l0 72 40 0 c29 0 42 -5 50 -21z"/> <path d="M1200 1571 c0 -5 11 -29 25 -52 14 -24 25 -56 25 -71 0 -48 28 -34 31 16 2 24 0 42 -5 39 -5 -3 -6 0 -4 8 3 8 12 13 20 11 9 -1 18 6 22 15 3 10 9 24 12 31 13 28 -27 10 -42 -20 l-16 -32 -27 32 c-26 32 -41 40 -41 23z m44 -44 c16 -24 25 -50 25 -70 l-2 -32 -4 29 c-3 16 -16 46 -29 67 -13 21 -24 42 -24 45 0 10 5 4 34 -39z"/> <path d="M1100 1273 c0 -19 44 -77 100 -133 42 -41 89 -73 148 -102 78 -39 92 -43 156 -42 49 1 60 0 36 -5 -35 -7 -34 -7 18 -14 28 -4 76 -4 105 0 l52 7 -35 8 c-24 5 -17 6 25 3 38 -3 71 1 90 10 17 7 23 14 15 14 -13 1 -13 2 0 11 20 13 33 13 25 0 -10 -15 1 -12 56 17 93 48 247 211 217 229 -7 5 -20 -4 -32 -21 -59 -84 -130 -145 -217 -189 -49 -24 -84 -46 -77 -49 7 -2 -5 -4 -27 -4 -22 0 -81 -1 -131 -2 -50 -1 -109 0 -130 3 -29 5 -34 4 -19 -3 20 -10 20 -10 0 -10 -11 0 -36 7 -55 15 l-35 14 35 -5 c32 -5 33 -4 10 6 -126 55 -208 111 -248 169 -24 36 -53 58 -36 28 4 -8 3 -9 -2 -5 -5 5 -9 18 -9 30 0 13 -7 23 -17 25 -10 2 -18 0 -18 -5z m962 -67 c-56 -73 -174 -166 -213 -166 -8 0 4 9 26 21 78 41 166 120 203 181 9 15 18 25 20 23 3 -2 -14 -29 -36 -59z m-743 -132 c41 -24 71 -44 65 -44 -37 0 -234 154 -234 183 0 5 21 -14 46 -43 26 -28 81 -71 123 -96z"/> </g> </svg> 