<?xml version="1.0" standalone="no"?>
<!DOCTYPE svg PUBLIC "-//W3C//DTD SVG 20010904//EN"
 "http://www.w3.org/TR/2001/REC-SVG-20010904/DTD/svg10.dtd">
<svg version="1.0" xmlns="http://www.w3.org/2000/svg"
 width="300.000000pt" height="300.000000pt" viewBox="0 0 300.000000 300.000000"
 preserveAspectRatio="xMidYMid meet">
<metadata>
Created by potrace 1.10, written by Peter Selinger 2001-2011
</metadata>
<g transform="translate(0.000000,300.000000) scale(0.100000,-0.100000)"
fill="#000000" stroke="none">
<path d="M1450 2051 c-137 -44 -247 -124 -321 -232 -48 -72 -64 -109 -45 -109
7 0 23 24 37 53 32 69 147 184 219 218 85 41 102 47 187 60 136 21 285 -13
395 -88 84 -58 152 -134 182 -206 14 -35 36 -50 36 -26 0 26 -68 127 -124 184
-67 68 -168 124 -269 150 -78 20 -227 18 -297 -4z"/>
<path d="M1734 1649 c-16 -17 -37 -35 -47 -41 -21 -11 -80 -1 -71 13 3 5 2 14
-2 20 -5 8 -12 5 -23 -9 -18 -24 -64 -21 -54 4 6 16 -8 19 -22 5 -6 -5 -28
-11 -50 -13 -22 -2 -39 -7 -38 -12 1 -5 30 -20 65 -34 68 -27 108 -50 108 -61
0 -4 -16 -27 -36 -50 -33 -38 -41 -42 -78 -41 -22 1 -47 1 -53 1 -20 -2 -15
-19 7 -26 26 -8 67 -49 75 -75 7 -22 24 -27 26 -7 1 6 1 28 0 48 -2 30 4 41
39 73 62 56 78 48 109 -49 30 -96 27 -91 45 -76 10 8 12 20 6 39 -5 21 -2 33
14 51 l21 24 -22 -5 c-17 -5 -22 0 -26 19 -3 15 1 27 9 30 8 3 14 11 14 19 0
8 -6 11 -15 8 -8 -4 -15 -2 -16 2 0 5 -2 20 -5 33 -3 17 6 35 31 62 34 38 43
63 27 73 -5 3 -22 -8 -38 -25z m-70 -95 c9 -8 16 -22 16 -29 0 -20 -40 -4 -58
23 -13 20 -13 22 6 22 11 0 28 -7 36 -16z"/>
<path d="M1929 1583 c-1 -4 -2 -41 -3 -80 l-1 -73 48 0 c26 0 47 5 47 10 0 6
-16 10 -35 10 l-35 0 0 64 c0 36 -4 68 -10 71 -5 3 -11 3 -11 -2z"/>
<path d="M2046 1583 c-3 -3 -6 -39 -6 -80 0 -58 3 -73 15 -73 12 0 15 15 15
74 0 69 -8 95 -24 79z"/>
<path d="M2107 1583 c-4 -3 -7 -39 -7 -80 0 -54 3 -73 13 -73 10 0 13 14 9 55
-2 30 -2 55 0 55 3 0 22 -25 42 -55 50 -76 61 -72 61 20 0 43 -4 75 -10 75 -5
0 -10 -25 -10 -55 0 -30 -2 -55 -5 -55 -3 0 -22 27 -44 60 -41 65 -40 63 -49
53z"/>
<path d="M2288 1583 c-28 -4 -28 -5 -28 -79 l0 -74 51 0 c31 0 48 4 44 10 -3
6 -22 10 -41 10 -29 0 -34 3 -34 23 0 20 4 23 35 19 21 -3 35 0 35 7 0 6 -16
11 -35 11 -32 0 -35 3 -35 28 0 24 3 27 35 27 19 0 36 5 37 10 3 11 -23 15
-64 8z"/>
<path d="M668 1569 c-21 -12 -24 -52 -5 -66 6 -6 25 -13 40 -17 20 -5 27 -12
25 -24 -5 -24 -47 -28 -63 -5 -16 22 -34 9 -19 -14 28 -45 99 -29 99 22 0 25
-5 32 -35 41 -23 8 -35 18 -35 30 0 24 43 32 51 10 8 -20 24 -21 24 -1 0 15
-30 35 -52 35 -7 0 -21 -5 -30 -11z"/>
<path d="M770 1570 c0 -5 11 -10 25 -10 24 0 25 -2 25 -70 0 -40 4 -70 10 -70
6 0 10 30 10 70 0 68 1 70 25 70 14 0 25 5 25 10 0 6 -27 10 -60 10 -33 0 -60
-4 -60 -10z"/>
<path d="M935 1555 c-33 -32 -34 -83 -2 -113 32 -30 71 -28 97 5 27 34 22 89
-11 116 -29 24 -55 21 -84 -8z m75 -15 c11 -11 20 -28 20 -38 0 -26 -29 -62
-50 -62 -45 0 -66 65 -33 102 21 23 38 23 63 -2z"/>
<path d="M1079 1578 c0 -2 -1 -38 -2 -80 -2 -57 1 -78 10 -78 8 0 13 13 13 30
0 23 5 30 19 30 11 0 23 -12 31 -30 7 -16 19 -30 27 -30 12 0 11 5 -4 30 -13
23 -15 32 -5 42 7 7 12 25 12 40 0 21 -6 31 -26 38 -23 9 -73 14 -75 8z m69
-27 c23 -14 10 -46 -21 -49 -24 -3 -27 0 -27 27 0 32 19 41 48 22z"/>
<path d="M1200 1576 c0 -2 11 -24 25 -47 14 -24 25 -59 25 -76 0 -18 5 -33 10
-33 6 0 10 14 10 31 0 17 13 49 30 74 34 49 36 55 16 55 -7 0 -21 -16 -30 -35
-19 -39 -29 -38 -51 6 -13 24 -35 40 -35 25z"/>
<path d="M1108 1275 c-18 -19 95 -144 184 -204 166 -111 404 -121 589 -25 92
49 238 193 227 225 -2 7 -27 -18 -56 -55 -82 -103 -173 -162 -310 -197 -139
-35 -267 -19 -404 53 -73 38 -136 94 -198 176 -14 19 -28 30 -32 27z"/>
</g>
</svg>
